<svg width="372" height="38" viewBox="0 0 372 38" fill="none" xmlns="http://www.w3.org/2000/svg">
<g clip-path="url(#clip0_6_14)">
<path d="M26.6152 31.8H8.9092L6.35496 37.36H0L17.5936 0H17.941L35.5346 37.36H29.1695L26.6152 31.8ZM24.347 26.87L17.7775 12.56L11.2387 26.87H24.347Z" fill="white"/>
<path d="M70.7014 0.659985V38H70.4256L46.4974 13.54V37.41H40.6227V0.109985H40.9292L64.8063 24.53V0.659985H70.7014Z" fill="white"/>
<path d="M77.0462 19.1C77.0381 15.3506 78.1672 11.6833 80.2904 8.56247C82.4136 5.44168 85.4354 3.00789 88.9729 1.56941C92.5105 0.130932 96.4047 -0.247514 100.162 0.482015C103.92 1.21154 107.372 3.01622 110.08 5.66743C112.789 8.31865 114.633 11.6971 115.378 15.3748C116.124 19.0525 115.737 22.8641 114.267 26.3265C112.798 29.789 110.311 32.7466 107.122 34.8247C103.934 36.9028 100.187 38.0079 96.3563 38C91.2432 37.9737 86.3472 35.974 82.7316 32.4353C79.1161 28.8965 77.073 24.1045 77.0462 19.1V19.1ZM109.792 19.1C109.81 16.5002 109.039 13.9537 107.577 11.7831C106.115 9.6125 104.027 7.9156 101.579 6.90742C99.1307 5.89925 96.4316 5.6252 93.8239 6.11999C91.2162 6.61479 88.8173 7.85616 86.9312 9.68678C85.0451 11.5174 83.7566 13.8549 83.2292 16.4029C82.7018 18.951 82.9591 21.595 83.9686 23.9998C84.978 26.4045 86.6941 28.4619 88.8995 29.9111C91.1048 31.3602 93.7 32.136 96.3563 32.14C99.9039 32.1296 103.304 30.7504 105.82 28.3016C108.335 25.8529 109.762 22.5322 109.792 19.06V19.1Z" fill="white"/>
<path d="M143.64 6.45H133.618V37.36H127.712V6.45H117.7V0.75H143.64V6.45Z" fill="white"/>
<path d="M177.162 0.75V37.36H171.298V21.9H155.094V37.36H149.25V0.75H155.094V16.19H171.298V0.75H177.162Z" fill="white"/>
<path d="M191.17 6.41V15.79H205.361V21.51H191.17V31.64H207.578V37.36H185.305V0.75H207.578V6.41H191.17Z" fill="white"/>
<path d="M235.184 37.36L225.121 23.19H220.523V37.36H214.648V0.75H226.275C233.233 0.75 238.944 6 238.944 12.52C238.957 14.7643 238.249 16.9558 236.92 18.7844C235.591 20.6131 233.708 21.9864 231.537 22.71L242.428 37.36H235.184ZM226.388 18.42C228.054 18.4448 229.664 17.8312 230.874 16.7102C232.084 15.5892 232.799 14.0496 232.865 12.42C232.842 11.6132 232.655 10.8189 232.316 10.0831C231.977 9.34737 231.492 8.68465 230.89 8.13328C230.287 7.5819 229.579 7.15279 228.807 6.87074C228.034 6.58869 227.212 6.45928 226.388 6.49H220.492V18.49L226.388 18.42Z" fill="white"/>
<path d="M262.157 0.75H268.032V37.36H262.157V0.75Z" fill="white"/>
<path d="M306.111 19.1C306.111 30.35 298.703 37.36 286.831 37.36H276.175V0.750012H286.831C298.703 0.730012 306.111 7.77001 306.111 19.1ZM300.175 19.1C300.175 11.33 295.015 6.47001 286.801 6.47001H281.988V31.64H286.842C295.046 31.64 300.175 26.8 300.175 19.08V19.1Z" fill="white"/>
<path opacity="0.6" d="M344.026 34.75L345.385 31.8L354.243 12.56L363.07 31.8H363.091L365.645 37.36H372L354.406 0H354.059L336.465 37.36H342.82L344.026 34.75Z" fill="#BABCBE"/>
<path d="M318.31 31.64V21.51H335.791L338.488 15.79H318.31V6.41H342.902L345.569 0.75H312.435V37.36H328.322L331.02 31.64H318.31Z" fill="white"/>
<path d="M334.677 37.36H334.718V37.29L334.677 37.36Z" fill="white"/>
</g>
<defs>
<clipPath id="clip0_6_14">
<rect width="372" height="38" fill="white"/>
</clipPath>
</defs>
</svg>
