<svg width="255" height="26" viewBox="0 0 255 26" fill="none" xmlns="http://www.w3.org/2000/svg">
<g clip-path="url(#clip0_12_104)">
<path d="M18.2104 21.7579H6.09577L4.34813 25.5621H0L12.0377 0H12.2754L24.3132 25.5621H19.958L18.2104 21.7579ZM16.6585 18.3847L12.1636 8.59368L7.68962 18.3847H16.6585Z" fill="white"/>
<path d="M48.3747 0.451572V26H48.1859L31.814 9.2642V25.5963H27.7945V0.0752563H28.0042L44.3411 16.7837V0.451572H48.3747Z" fill="white"/>
<path d="M52.7158 13.0684C52.7103 10.5031 53.4828 7.99381 54.9355 5.85853C56.3882 3.72325 58.4558 2.05803 60.8762 1.07381C63.2967 0.089585 65.9611 -0.169351 68.5321 0.3298C71.103 0.828951 73.4647 2.06373 75.3181 3.87772C77.1714 5.6917 78.433 8.00328 78.943 10.5196C79.453 13.036 79.1884 15.6438 78.1828 18.0129C77.1773 20.3819 75.4759 22.4056 73.2943 23.8274C71.1127 25.2493 68.549 26.0054 65.928 26C62.4296 25.982 59.0797 24.6138 56.6059 22.1926C54.1321 19.7713 52.7342 16.4925 52.7158 13.0684V13.0684ZM75.1206 13.0684C75.133 11.2896 74.6057 9.54725 73.6053 8.06211C72.605 6.57698 71.1767 5.41594 69.5015 4.72613C67.8263 4.03633 65.9795 3.84882 64.1953 4.18736C62.4111 4.52591 60.7697 5.37527 59.4792 6.6278C58.1887 7.88033 57.3072 9.47965 56.9463 11.2231C56.5855 12.9665 56.7615 14.7755 57.4522 16.4209C58.1429 18.0663 59.3171 19.4739 60.826 20.4655C62.3349 21.457 64.1105 21.9878 65.928 21.9905C68.3553 21.9834 70.6819 21.0397 72.4028 19.3643C74.1238 17.6888 75.1003 15.4168 75.1206 13.041V13.0684Z" fill="white"/>
<path d="M98.2803 4.41315H91.4226V25.5621H87.382V4.41315H80.5313V0.513153H98.2803V4.41315Z" fill="white"/>
<path d="M121.216 0.513153V25.5621H117.204V14.9842H106.117V25.5621H102.118V0.513153H106.117V11.0774H117.204V0.513153H121.216Z" fill="white"/>
<path d="M130.8 4.38578V10.8037H140.51V14.7174H130.8V21.6484H142.027V25.5621H126.788V0.513153H142.027V4.38578H130.8Z" fill="white"/>
<path d="M160.916 25.5621L154.03 15.8668H150.884V25.5621H146.865V0.513153H154.82C159.581 0.513153 163.488 4.10526 163.488 8.56631C163.497 10.1019 163.013 11.6013 162.103 12.8525C161.194 14.1037 159.905 15.0433 158.42 15.5384L165.872 25.5621H160.916ZM154.897 12.6032C156.037 12.6201 157.138 12.2003 157.966 11.4333C158.794 10.6663 159.283 9.61286 159.329 8.49789C159.313 7.94584 159.185 7.40241 158.953 6.89899C158.721 6.39556 158.389 5.94213 157.977 5.56487C157.565 5.18761 157.081 4.89401 156.552 4.70103C156.023 4.50804 155.461 4.4195 154.897 4.44052H150.863V12.651L154.897 12.6032Z" fill="white"/>
<path d="M179.371 0.513153H183.39V25.5621H179.371V0.513153Z" fill="white"/>
<path d="M209.444 13.0684C209.444 20.7658 204.376 25.5621 196.253 25.5621H188.962V0.513152H196.253C204.376 0.499467 209.444 5.31631 209.444 13.0684ZM205.383 13.0684C205.383 7.7521 201.852 4.42684 196.232 4.42684H192.939V21.6484H196.26C201.873 21.6484 205.383 18.3368 205.383 13.0547V13.0684Z" fill="white"/>
<path opacity="0.6" d="M235.386 23.7763L236.316 21.7579L242.377 8.59368L248.417 21.7579H248.431L250.178 25.5621H254.526L242.489 0H242.251L230.213 25.5621H234.561L235.386 23.7763Z" fill="#BABCBE"/>
<path d="M217.791 21.6484V14.7174H229.752L231.597 10.8037H217.791V4.38578H234.617L236.442 0.513153H213.771V25.5621H224.642L226.487 21.6484H217.791Z" fill="white"/>
<path d="M228.99 25.5621H229.018V25.5142L228.99 25.5621Z" fill="white"/>
</g>
<defs>
<clipPath id="clip0_12_104">
<rect width="254.526" height="26" fill="white"/>
</clipPath>
</defs>
</svg>
