<svg width="24" height="24" viewBox="0 0 24 24" fill="none" xmlns="http://www.w3.org/2000/svg">
<g clip-path="url(#clip0_1_2)">
<path d="M12 24C18.6274 24 24 18.6274 24 12C24 5.37258 18.6274 0 12 0C5.37258 0 0 5.37258 0 12C0 18.6274 5.37258 24 12 24Z" fill="white"/>
<path d="M4.22 12C4.22 10.89 4.22 9.78 4.22 8.67C4.2732 7.66927 4.65316 6.71362 5.30162 5.94956C5.95008 5.1855 6.83124 4.65521 7.81 4.44C8.17158 4.36106 8.53998 4.31752 8.91 4.31H15.11C16.2062 4.30424 17.2693 4.68508 18.1124 5.38557C18.9556 6.08606 19.5248 7.06136 19.72 8.14C19.7681 8.42075 19.7915 8.70517 19.79 8.99V14.99C19.7966 15.6032 19.6819 16.2116 19.4524 16.7802C19.2229 17.3489 18.8832 17.8665 18.4529 18.3033C18.0226 18.7402 17.5101 19.0876 16.9449 19.3256C16.3798 19.5635 15.7732 19.6874 15.16 19.69C13.0533 19.69 10.9433 19.69 8.83 19.69C7.70452 19.6822 6.62009 19.2664 5.77786 18.5198C4.93563 17.7732 4.39278 16.7464 4.25 15.63C4.25 15.32 4.25 15.01 4.25 14.69V12H4.22ZM8.91 5.76C8.49168 5.75205 8.07594 5.82725 7.68691 5.98124C7.29789 6.13523 6.94331 6.36494 6.64376 6.65705C6.34421 6.94915 6.10566 7.29784 5.94193 7.68287C5.77821 8.0679 5.69257 8.48161 5.69 8.9C5.69 10.96 5.69 13.02 5.69 15.08C5.69252 15.9051 6.01868 16.6963 6.59837 17.2835C7.17806 17.8706 7.96499 18.2069 8.79 18.22C10.9367 18.22 13.0867 18.22 15.24 18.22C16.0598 18.2044 16.8413 17.8698 17.4183 17.2872C17.9953 16.7046 18.3223 15.9199 18.33 15.1C18.33 13.03 18.33 10.95 18.33 8.88C18.3206 8.07785 18.0045 7.30973 17.4466 6.73326C16.8888 6.1568 16.1314 5.81571 15.33 5.78C14.25 5.73 9.94 5.75 8.91 5.76Z" fill="#5542F7"/>
<path d="M15.9 12C15.9119 12.7619 15.6969 13.5102 15.2822 14.1495C14.8676 14.7888 14.2721 15.2903 13.5716 15.5902C12.871 15.89 12.0971 15.9747 11.3483 15.8334C10.5995 15.6921 9.90969 15.3311 9.36664 14.7966C8.82359 14.262 8.45186 13.578 8.29877 12.8315C8.14567 12.085 8.21813 11.3099 8.50692 10.6047C8.79572 9.89951 9.28779 9.29621 9.92051 8.87155C10.5532 8.44689 11.298 8.22009 12.06 8.21999C13.0697 8.21465 14.0404 8.60928 14.76 9.31761C15.4796 10.0259 15.8894 10.9903 15.9 12V12ZM14.52 12C14.526 11.5118 14.3865 11.0329 14.1194 10.6242C13.8523 10.2155 13.4696 9.89552 13.0201 9.70501C12.5705 9.5145 12.0745 9.46207 11.595 9.55439C11.1156 9.64671 10.6745 9.8796 10.3278 10.2234C9.9812 10.5672 9.7447 11.0064 9.64845 11.4851C9.55221 11.9637 9.60057 12.4602 9.78739 12.9113C9.9742 13.3624 10.291 13.7477 10.6975 14.0181C11.104 14.2886 11.5818 14.4319 12.07 14.43C12.3904 14.4313 12.708 14.3695 13.0045 14.2481C13.301 14.1267 13.5708 13.9481 13.7983 13.7224C14.0258 13.4968 14.2066 13.2285 14.3304 12.933C14.4543 12.6374 14.5187 12.3204 14.52 12V12Z" fill="#5542F7"/>
<path d="M15.21 7.99999C15.2579 7.79865 15.3723 7.61935 15.5347 7.49107C15.6971 7.36278 15.898 7.293 16.105 7.293C16.312 7.293 16.5129 7.36278 16.6753 7.49107C16.8377 7.61935 16.9521 7.79865 17 7.99999C16.9763 8.22616 16.8697 8.43556 16.7007 8.58776C16.5318 8.73997 16.3124 8.8242 16.085 8.8242C15.8576 8.8242 15.6382 8.73997 15.4693 8.58776C15.3003 8.43556 15.1937 8.22616 15.17 7.99999H15.21Z" fill="#5542F7"/>
</g>
<defs>
<clipPath id="clip0_1_2">
<rect width="24" height="24" fill="white"/>
</clipPath>
</defs>
</svg>
