<?xml version="1.0" encoding="UTF-8"?>
<svg version="1.1" xmlns="http://www.w3.org/2000/svg" xmlns:xlink="http://www.w3.org/1999/xlink">
<defs>
<linearGradient id="paint0_linear" x1="290.5" x2="85" y1="6.5" y2="212" gradientUnits="userSpaceOnUse"><stop stop-color="#fff"/><stop offset="1" stop-color="#fff" stop-opacity="0"/></linearGradient>
</defs>
<symbol id="i-arrow-corner" xmlns="http://www.w3.org/2000/svg" viewBox="0 0 13 15"><path d="M0 0h2v10H0V0z"/><path d="M10 9v2H0V9h10z"/><path d="M13 10l-4.5 4.33V5.67L13 10z"/></symbol>
<symbol id="i-arrow-diag" xmlns="http://www.w3.org/2000/svg" viewBox="0 0 31 30"><path d="M8.307 10.89h9.472L7.203 21.466l2.207 2.206 10.575-10.575v9.472h3.12V7.771H8.307v3.12z"/></symbol>
<symbol id="i-arrow-down" xmlns="http://www.w3.org/2000/svg" viewBox="0 0 16 17"><path d="M14.313 7.242l-5.12 5.12V.928H6.807v11.434l-5.12-5.12L0 8.928l8 8 8-8-1.687-1.686z"/></symbol>
<symbol id="i-arrow-left" xmlns="http://www.w3.org/2000/svg" viewBox="0 0 20.9 20.9"><path d="M12.7 18.7L6 12h15V8.9H6l6.7-6.7L10.5 0 0 10.5l10.5 10.4 2.2-2.2z"/></symbol>
<symbol id="i-arrow-right" xmlns="http://www.w3.org/2000/svg" viewBox="0 0 20.9 20.9"><path d="M8.3 2.2L15 8.9H0V12h15l-6.7 6.7 2.2 2.2L21 10.4 10.5 0 8.3 2.2z"/></symbol>
<symbol id="i-burger-shape" xmlns="http://www.w3.org/2000/svg" viewBox="0 0 82.1 79.2"><path d="M41.8.1C47.7 0 56.3 0 63.3 4.8c7 4.9 9.4 9.6 11.1 13.1.5.9.9 1.8 1.3 2.5 3.3 5.4 6.4 10.6 6.4 18.9 0 8.2-2.1 12.8-7 20.8s-8.2 12.6-12.6 14.8-11.9 4.6-21.5 4.3c-8.6 0-13.4-.1-18.7-3.1C17 73 12.2 70 7 59.7c-1.2-2.4-2.2-4.2-3-5.7-2.8-5.1-3.6-6.6-4-14-.4-7.6 4.4-15.8 6.8-19.8.2-.4.5-.9.8-1.4 2.7-4.6 7.6-12.9 14.5-15.6C30.6-.1 33.7 0 39.1.1c.7 0 1.5 0 2.3.1.2-.1.3-.1.4-.1zm-.6 78.3C62.7 78.4 80 61 80 39.6S62.7.8 41.2.8C19.8.8 2.4 18.2 2.4 39.6s17.4 38.8 38.8 38.8z"/></symbol>
<symbol id="i-calendar" xmlns="http://www.w3.org/2000/svg" viewBox="0 0 10 10"><path d="M9.75 3.875a.25.25 0 00.25-.25V3.5A1.5 1.5 0 008.5 2h-.625V.625a.625.625 0 00-1.25 0V2h-3.25V.625a.625.625 0 00-1.25 0V2H1.5A1.5 1.5 0 000 3.5v.125a.25.25 0 00.25.25h9.5zm-9.5 1.25a.25.25 0 00-.25.25V8.5A1.5 1.5 0 001.5 10h7A1.5 1.5 0 0010 8.5V5.375a.25.25 0 00-.25-.25H.25z"/></symbol>
<symbol id="i-circles" xmlns="http://www.w3.org/2000/svg" viewBox="0 0 1070.4 970.4"><path d="M529 917.8c-58.3 0-114.8-11.4-168-33.9-51.4-21.7-97.6-52.9-137.2-92.5-39.6-39.6-70.8-85.8-92.5-137.2-22.5-53.2-33.9-109.8-33.9-168 0-58.3 11.4-114.8 33.9-168 21.7-51.4 52.9-97.6 92.5-137.2 39.6-39.6 85.8-70.8 137.2-92.5C414.2 66 470.7 54.6 529 54.6c50.9 0 100.7 8.8 148 26.1 45.8 16.7 88.1 40.9 125.9 72 75.9 62.4 128.6 149.4 148.6 245l.1.5h-.5c-45.3 4.6-79.5 42.5-79.5 88.1 0 45.6 34.2 83.5 79.5 88.1h.5l-.1.5c-19.9 95.6-72.7 182.6-148.6 245-37.8 31.1-80.2 55.3-125.9 72-47.3 17.1-97.2 25.9-148 25.9zm0-862.5c-237.5 0-430.8 193.2-430.8 430.8 0 237.5 193.2 430.8 430.8 430.8 202.8 0 380-143.7 421.6-341.9-21.7-2.3-41.8-12.5-56.5-28.8-15-16.5-23.2-37.8-23.2-60.1 0-22.3 8.2-43.6 23.2-60.1 14.8-16.2 34.8-26.5 56.5-28.8C909 199.1 731.8 55.3 529 55.3z"/><path d="M960.2 575.5c-3.1 0-6.1-.2-9.1-.5-21.9-2.2-42.2-12.5-57-28.8-15-16.5-23.2-37.8-23.2-60.1 0-22.3 8.2-43.6 23.2-60.1 14.9-16.4 35.1-26.6 57-28.8 3-.3 6.1-.5 9.1-.5 49.3 0 89.4 40.1 89.4 89.4s-40.1 89.4-89.4 89.4zm0-177.9c-3 0-6.1.2-9.1.5-45.3 4.6-79.5 42.5-79.5 88.1 0 45.6 34.2 83.5 79.5 88.1 3 .3 6 .5 9.1.5 48.8 0 88.5-39.7 88.5-88.5s-39.7-88.7-88.5-88.7z"/></symbol>
<symbol id="i-contact" xmlns="http://www.w3.org/2000/svg" viewBox="0 0 15 19"><path d="M5.132 9.5c0 .63.25 1.234.693 1.68a2.365 2.365 0 003.35 0 2.378 2.378 0 000-3.36 2.365 2.365 0 00-3.35 0 2.378 2.378 0 00-.693 1.68z"/><path d="M13.421 2.375h-1.974a.394.394 0 00-.394.396v.792a.397.397 0 00.394.395h1.58a.394.394 0 01.394.396v9.5a.396.396 0 01-.395.396h-2.094A4.517 4.517 0 007.5 12.667a4.507 4.507 0 00-3.43 1.583H1.974a.394.394 0 01-.395-.396v-9.5a.396.396 0 01.395-.396h1.579a.394.394 0 00.394-.396v-.791a.396.396 0 00-.394-.396H1.579A1.586 1.586 0 000 3.958v13.459A1.577 1.577 0 001.579 19h11.842A1.586 1.586 0 0015 17.417V3.958c0-.42-.166-.822-.463-1.12a1.577 1.577 0 00-1.116-.463zM1.974 17.417a.394.394 0 01-.395-.396v-.792a.396.396 0 01.395-.396h11.052a.394.394 0 01.395.396v.792a.396.396 0 01-.395.396H1.974z"/><path d="M5.132 4.75a1.19 1.19 0 001.184 1.188h2.368A1.183 1.183 0 009.868 4.75V2.375c0-.63-.25-1.234-.693-1.68a2.365 2.365 0 00-3.35 0 2.378 2.378 0 00-.693 1.68V4.75zM6.71 1.98a.793.793 0 01.943-.777.789.789 0 01.575 1.08.791.791 0 01-.729.488.788.788 0 01-.79-.792z"/></symbol>
<symbol id="i-cross" xmlns="http://www.w3.org/2000/svg" viewBox="0 0 20 20"><path d="M0 8.6h20v2.7H0V8.6z"/><path d="M8.6 0h2.7v20H8.6V0z"/></symbol>
<symbol id="i-drag-drop" xmlns="http://www.w3.org/2000/svg" viewBox="0 0 42 16"><path d="M32.242 1.687l5.12 5.12H25.928v2.386h11.434l-5.12 5.12L33.928 16l8-8-8-8-1.686 1.687zM9.687 14.313l-5.121-5.12H16V6.807H4.566l5.12-5.12L8 0 0 8l8 8 1.687-1.687z"/></symbol>
<symbol id="i-facebook" xmlns="http://www.w3.org/2000/svg" viewBox="0 0 6 10"><path d="M3.702 10V5.446h1.536l.229-1.783H3.702V2.527c0-.514.143-.867.882-.867h.936V.07A12.41 12.41 0 004.149 0c-1.358 0-2.29.83-2.29 2.351V3.66H.331v1.783h1.53V10h1.84z"/></symbol>
<symbol id="i-fullscreen" xmlns="http://www.w3.org/2000/svg" viewBox="0 0 12 12"><path d="M1.333 1.333h3.334V0H0v4.667h1.333V1.333zm3.334 9.334H1.333V7.333H0V12h4.667v-1.333zM12 7.333h-1.333v3.334H7.333V12H12V7.333zm-1.333-2.666H12V0H7.333v1.333h3.334v3.334z"/></symbol>
<symbol id="i-instagram" xmlns="http://www.w3.org/2000/svg" viewBox="0 0 10 10"><path d="M9.968 2.952a3.614 3.614 0 00-.233-1.229c-.26-.67-.79-1.2-1.462-1.46A3.674 3.674 0 007.059.03C6.525.007 6.356 0 5 0 3.643 0 3.47 0 2.94.03a3.673 3.673 0 00-1.213.233 2.56 2.56 0 00-1.462 1.46A3.628 3.628 0 00.03 2.934C.007 3.468 0 3.637 0 4.991s0 1.527.031 2.057c.008.415.087.824.233 1.212.26.67.79 1.2 1.462 1.46.387.15.797.236 1.214.249.535.024.704.031 2.06.031s1.53 0 2.06-.031a3.665 3.665 0 001.214-.232 2.56 2.56 0 001.462-1.46c.146-.388.225-.797.233-1.212.024-.534.031-.703.031-2.057-.001-1.354-.001-1.526-.032-2.056zm-4.972 4.6A2.564 2.564 0 012.43 4.987a2.564 2.564 0 012.567-2.563 2.565 2.565 0 012.567 2.563A2.565 2.565 0 014.997 7.55zm2.67-4.624a.597.597 0 11-.003-1.194.597.597 0 01.002 1.194z"/><path d="M4.996 6.653a1.665 1.665 0 100-3.329 1.665 1.665 0 100 3.329z"/></symbol>
<symbol id="i-label" xmlns="http://www.w3.org/2000/svg" viewBox="0 0 10 10"><path d="M9.56 5.354L4.355.146A.5.5 0 004 0H1a1 1 0 00-1 1v3a.5.5 0 00.146.354L5.354 9.56a1.5 1.5 0 002.12 0l2.087-2.086a1.5 1.5 0 000-2.121zM2.5 3.5a1 1 0 110-2 1 1 0 010 2z"/></symbol>
<symbol id="i-linkedin" xmlns="http://www.w3.org/2000/svg" viewBox="0 0 10 11"><path d="M0 3.667h2.5V11H0V3.667zM0 1.31c0 .347.13.68.363.925.233.246.548.384.877.384.329 0 .644-.138.877-.384.232-.245.363-.578.363-.925 0-.348-.13-.68-.363-.926A1.208 1.208 0 001.24 0C.911 0 .596.138.363.384A1.348 1.348 0 000 1.31zM8.25 11h1.5c.066 0 .13-.028.177-.077a.268.268 0 00.073-.185v-4.4c0-1.975-1.065-2.933-2.555-2.933a2.02 2.02 0 00-.86.156c-.273.115-.52.288-.725.509a.204.204 0 01-.104.068.196.196 0 01-.123-.007.207.207 0 01-.097-.08.222.222 0 01-.036-.122.268.268 0 00-.073-.186.244.244 0 00-.177-.076h-1.5a.244.244 0 00-.177.076.268.268 0 00-.073.186v6.81c0 .069.026.135.073.184A.24.24 0 003.75 11h1.5c.066 0 .13-.028.177-.077a.268.268 0 00.073-.185V6.81c0-.348.132-.68.366-.926.235-.246.552-.384.884-.384.332 0 .65.138.884.384.234.245.366.578.366.926v3.928c0 .07.026.136.073.185A.24.24 0 008.25 11z"/></symbol>
<symbol id="i-logo-akaru" xmlns="http://www.w3.org/2000/svg" viewBox="0 0 17 18"><path d="M10.28 14.076c.164.384 1.148 2.344-.573 2.344v.364h6.35v-.364c-.573-.04-1.106.162-1.864-1.597 0 0-.348-.93-5.797-13.823 0 0-1.66 2.647-1.209 5.558.082.505 2.93 7.134 3.093 7.518zm-6.78.301s-.513 2.001 1.68 2.001v.405H1v-.364c.533-.04 1.188-.02 2.09-2.042h.41z"/></symbol>
<symbol id="i-logo-mediakeys-experience-hor" xmlns="http://www.w3.org/2000/svg" viewBox="0 0 199.8 38"><path fill-rule="evenodd" d="M191.7 0c3.1 0 5.6.9 7.5 2.7l.4.4-2.2 2.5-.4-.4c-1.3-1.3-3.2-2-5.4-2-2.1 0-3.5.9-3.5 2.3 0 1.3 1.6 1.8 4.3 2.4h.1c3.3.8 7.4 1.8 7.4 6 0 2.8-2.1 5.8-7.9 5.8-4.2 0-6.7-1.6-8-3l-.3-.4 2.2-2.5.4.4c.9.9 2.8 2.4 5.9 2.4 3 0 4.1-1.3 4.1-2.6 0-1.6-1.7-2.2-4.6-2.9h-.3l-.3-.1c-3.1-.7-6.6-1.8-6.6-5.5-.2-3.2 2.9-5.5 7.2-5.5zm-27.5.4l5.9 7.6L176 .4h4.4l-8.6 11.1V19h-3.4v-7.5L159.8.4h4.4zM3.3.4l6.9 11.7L17 .4h3.4V19h-3.6V8l-6.7 11L3.4 8v11H0V.4h3.3zm40.6 0v3.5H32.3v3.4H39v3.6h-6.7v4.5h11.6v3.5H28.7V.4h15.2zm35.9 0V19h-3.6V.4h3.6zm18 0l9 18.6h-4l-1.9-4h-9.7l-2 4h-4l9-18.6h3.6zm57.1 0v3.5h-11.6v3.4h6.7v3.6h-6.7v4.5h11.6v3.5h-15.2V.4h15.2zM59.6.4c2.6 0 4.9.9 6.7 2.7 1.9 1.8 2.8 4 2.8 6.5 0 2.6-.9 4.8-2.8 6.6-1.9 1.8-4.1 2.7-6.7 2.7h-8.3V.4h8.3zm56.7 0v13.2L127.5.4h4.2l-5.3 6.3 7.2 12.1h-4l-5.4-9.2-7.4 9.2h-4V.4h3.5zM59.6 3.9h-4.7v11.5h4.7c1.6 0 3-.6 4.1-1.7 1.1-1.1 1.7-2.5 1.7-4.1 0-1.6-.6-2.9-1.7-4s-2.5-1.7-4.1-1.7zm36.4 1l-3.1 6.5h6.3L96 4.9z" class="line" clip-rule="evenodd"/><path d="M6.7 37.2H-.2v-9.1h6.8v1.6H1.5v1.7h2.8V33H1.5v2.5h5.2v1.7zm10.8 0h-2L13.4 34l-2.1 3.2h-2l3-4.8-2.8-4.3h2l1.8 2.8 1.8-2.8h2l-2.7 4.3 3.1 4.8zm7.1-3.6h-2.7v3.6h-1.7v-9.1h4.3c.6 0 1.1.1 1.6.4 1 .5 1.4 1.3 1.4 2.4 0 1.1-.5 2-1.4 2.5-.5.1-1 .2-1.5.2zm1.3-2.8c0-.4-.1-.6-.4-.8-.2-.2-.6-.3-1-.3h-2.6V32h2.6c.4 0 .7-.1 1-.3.2-.3.4-.5.4-.9zm11.6 6.4h-6.9v-9.1h6.8v1.6h-5.1v1.7h2.8V33h-2.8v2.5h5.2v1.7zm10.6 0h-1.9l-1.5-3.6h-2.5v3.6h-1.7v-9.1h4.3c.6 0 1.1.1 1.6.4 1 .5 1.4 1.3 1.4 2.4 0 1.1-.5 1.9-1.5 2.4l1.8 3.9zm-1.9-6.4c0-.4-.1-.6-.4-.8-.2-.2-.6-.3-1-.3h-2.6V32h2.6c.4 0 .7-.1 1-.3.3-.3.4-.5.4-.9zm6.8 6.4h-1.7v-9.1H53v9.1zm10.2 0h-6.9v-9.1h6.8v1.6H58v1.7h2.8V33H58v2.5h5.2v1.7zm10.6 0h-1.4L67.9 31v6.1h-1.6V28h1.6l4.3 6.1V28h1.6v9.2zm10.5-1.9c-.9 1.3-2.1 2-3.6 2-1.2 0-2.2-.4-2.9-1.3-.7-.9-1.1-2-1.1-3.4s.4-2.6 1.1-3.4c.7-.8 1.7-1.3 2.9-1.3 1.5 0 2.7.7 3.6 2l-1.5.7c-.5-.7-1.2-1.1-2.1-1.1-.7 0-1.3.3-1.6.9-.4.6-.6 1.3-.6 2.1 0 1 .2 1.7.6 2.3.4.5 1 .8 1.7.8.9 0 1.6-.4 2-1.1l1.5.8zm9.9 1.9h-6.9v-9.1h6.8v1.6H89v1.7h2.8V33H89v2.5h5.2v1.7z" class="line"/></symbol>
<symbol id="i-logo-mediakeys-experience" xmlns="http://www.w3.org/2000/svg" viewBox="0 0 160 125"><path d="M53.477 10.462c.289-.288 13.051 11.97 28.507 27.38 15.455 15.41 27.75 28.136 27.461 28.423-.288.288-13.051-11.97-28.506-27.38-15.455-15.41-27.75-28.136-27.462-28.423zm-5.264 5.921c.655-.652 13.56 11.157 28.823 26.376 15.264 15.22 27.108 28.086 26.454 28.738-.654.653-13.559-11.156-28.823-26.376-15.264-15.22-27.108-28.086-26.454-28.738zM60.942 4.875c.109-.108 12.276 11.848 27.175 26.704 14.9 14.856 26.891 26.987 26.782 27.095-.108.108-12.275-11.847-27.175-26.703S60.834 4.984 60.942 4.875zm9.171-3.617c.328-.327 11.476 10.259 24.9 23.644 13.425 13.384 24.041 24.5 23.714 24.827-.328.327-11.477-10.259-24.9-23.644-13.425-13.384-24.041-24.5-23.714-24.827zM81.097.043c.71-.708 10.012 7.418 20.777 18.151s18.915 20.008 18.205 20.716c-.711.709-10.013-7.418-20.777-18.15C88.537 10.025 80.386.75 81.097.042zm17.05 4.702c.765-.763 5.313 2.535 10.158 7.366 4.845 4.83 8.152 9.365 7.387 10.128-.765.763-5.312-2.535-10.157-7.366-4.845-4.83-8.153-9.365-7.388-10.128zM43.958 24.177c1.037-1.034 13.47 9.685 27.769 23.942 14.298 14.257 25.049 26.653 24.011 27.687-1.037 1.035-13.47-9.684-27.768-23.941-14.3-14.257-25.05-26.653-24.012-27.688zm-2.454 11.265c1.43-1.425 12.215 7.018 24.091 18.859C77.471 66.14 85.94 76.896 84.51 78.32c-1.43 1.425-12.216-7.018-24.091-18.859-11.876-11.84-20.344-22.595-18.915-24.02zm2.771 18.118c1.367-1.363 7.413 2.457 13.506 8.532s9.924 12.104 8.557 13.466c-1.366 1.362-7.413-2.458-13.505-8.532-6.093-6.075-9.924-12.104-8.558-13.466z" class="logo"/><path fill-rule="evenodd" d="M153.526 94.701c2.48 0 4.492.736 5.98 2.187l.307.3-1.798 2.031-.334-.34c-1.037-1.058-2.564-1.64-4.298-1.64-1.666 0-2.83.78-2.83 1.9 0 1.04 1.308 1.443 3.462 1.983l.074.018c2.632.649 5.911 1.457 5.911 4.934 0 2.316-1.663 4.792-6.33 4.792-3.359 0-5.358-1.352-6.445-2.486l-.279-.292 1.75-2.084.343.355a6.493 6.493 0 004.703 1.97c2.439 0 3.307-1.085 3.307-2.099 0-1.326-1.396-1.774-3.696-2.355l-.068-.017-.139-.034-.28-.068c-2.447-.602-5.263-1.452-5.263-4.507 0-2.635 2.491-4.548 5.923-4.548zm-22.064.35l4.736 6.279 4.714-6.278h3.503l-6.856 9.131v6.164h-2.746v-6.164l-6.855-9.131h3.504zM2.653 95.004l5.553 9.62 5.485-9.62h2.719v15.272h-2.878v-9.048l-5.326 9.048-5.372-9.048v9.048H0V95.003h2.653zm32.52 0V97.9h-9.315v2.78h5.327v2.964h-5.327v3.738h9.316v2.894H22.979V95.003h12.195zm28.703 0v15.273h-2.878V95.003h2.878zm14.449 0l7.185 15.272h-3.196l-1.541-3.327h-7.73l-1.586 3.327h-3.196l7.186-15.272h2.877zm45.696 0v2.895h-9.316v2.782h5.326v2.963h-5.326v3.738h9.316v2.895h-12.195V95.003h12.195zm-76.314 0c2.1 0 3.895.745 5.383 2.234 1.488 1.49 2.232 3.283 2.232 5.38 0 2.112-.744 3.917-2.232 5.414-1.488 1.496-3.283 2.244-5.383 2.244h-6.664V95.003h6.664zm45.418.001v10.883l8.982-10.883h3.368l-4.26 5.219 5.803 9.979h-3.236l-4.324-7.548-5.949 7.548h-3.218V95.004h2.834zM47.707 97.9h-3.786v9.482h3.786c1.3 0 2.406-.464 3.32-1.391.914-.926 1.372-2.051 1.372-3.373 0-1.292-.458-2.401-1.371-3.328-.915-.927-2.022-1.39-3.32-1.39zm29.19.797l-2.516 5.311h5.01l-2.494-5.31z" class="l1" clip-rule="evenodd"/><path d="M47.394 124.197h-5.606v-7.484h5.483v1.34h-4.115v1.396h2.242v1.363h-2.242v2.045h4.238v1.34zm8.73 0h-1.581l-1.682-2.647-1.66 2.647h-1.58l2.455-3.932-2.242-3.552h1.603l1.424 2.29 1.424-2.29h1.604l-2.21 3.552 2.445 3.932zm5.706-2.938h-2.154v2.938h-1.345v-7.484h3.453c.494 0 .924.104 1.29.312.77.447 1.155 1.106 1.155 1.978 0 .938-.385 1.612-1.155 2.022a3.15 3.15 0 01-1.245.234zm1.053-2.256c0-.291-.097-.522-.291-.693-.195-.171-.456-.257-.785-.257h-2.13v1.866h2.13c.329 0 .59-.082.785-.246a.85.85 0 00.291-.67zm9.453 5.194H66.73v-7.484h5.483v1.34h-4.115v1.396h2.242v1.363h-2.242v2.045h4.238v1.34zm8.506 0h-1.503l-1.21-2.938h-1.997v2.938h-1.345v-7.484h3.453c.494 0 .924.104 1.29.312.77.447 1.155 1.106 1.155 1.978 0 .886-.404 1.549-1.211 1.988l1.368 3.206zm-1.503-5.194c0-.291-.097-.522-.291-.693-.195-.171-.456-.257-.785-.257h-2.13v1.866h2.13c.329 0 .59-.082.785-.246a.851.851 0 00.291-.67zm5.481 5.194h-1.345v-7.484h1.345v7.484zm8.308 0h-5.606v-7.484h5.483v1.34H88.89v1.396h2.242v1.363H88.89v2.045h4.238v1.34zm8.517 0h-1.155l-3.588-5.049v5.049H95.59v-7.484h1.312l3.453 4.993v-4.993h1.29v7.484zm8.475-1.519c-.695 1.102-1.663 1.653-2.904 1.653-.98 0-1.757-.354-2.333-1.061-.568-.708-.852-1.65-.852-2.826 0-1.184.284-2.123.852-2.815.568-.693 1.346-1.039 2.333-1.039 1.248 0 2.216.551 2.904 1.653l-1.222.603c-.389-.596-.95-.905-1.682-.927-.569.015-1.013.268-1.335.76-.321.484-.482 1.065-.482 1.742 0 .805.165 1.43.493 1.877.337.44.785.659 1.346.659.748-.007 1.29-.309 1.626-.905l1.256.626zm8.06 1.519h-5.607v-7.484h5.483v1.34h-4.115v1.396h2.243v1.363h-2.243v2.045h4.239v1.34z" class="l2"/></symbol>
<symbol id="i-logo-mediakeys-international" xmlns="http://www.w3.org/2000/svg" viewBox="0 0 160 125"><path d="M53.5 10.5c.3-.3 13.1 12 28.5 27.4 15.5 15.4 27.8 28.1 27.5 28.4-.3.3-13.1-12-28.5-27.4S53.2 10.7 53.5 10.5zm-5.3 5.9c.7-.7 13.6 11.2 28.8 26.4 15.3 15.2 27.1 28.1 26.5 28.7-.7.7-13.6-11.2-28.8-26.4S47.6 17 48.2 16.4zM60.9 4.9c.1-.1 12.3 11.8 27.2 26.7 14.9 14.9 26.9 27 26.8 27.1-.1.1-12.3-11.8-27.2-26.7S60.8 5 60.9 4.9zm9.2-3.6C70.4.9 81.6 11.5 95 24.9c13.4 13.4 24 24.5 23.7 24.8-.3.3-11.5-10.3-24.9-23.6-13.4-13.4-24-24.5-23.7-24.8zm11-1.3c.7-.7 10 7.4 20.8 18.2s18.9 20 18.2 20.7c-.7.7-10-7.4-20.8-18.1C88.5 10 80.4.8 81.1 0zm17 4.7c.8-.8 5.3 2.5 10.2 7.4 4.8 4.8 8.2 9.4 7.4 10.1s-5.3-2.5-10.2-7.4c-4.8-4.8-8.1-9.3-7.4-10.1zM44 24.2c1-1 13.5 9.7 27.8 23.9 14.3 14.3 25 26.7 24 27.7S82.3 66.1 68 51.9C53.7 37.6 42.9 25.2 44 24.2zm-2.5 11.2c1.4-1.4 12.2 7 24.1 18.9 11.9 11.8 20.3 22.6 18.9 24-1.4 1.4-12.2-7-24.1-18.9-11.9-11.8-20.3-22.5-18.9-24zm2.8 18.2c1.4-1.4 7.4 2.5 13.5 8.5s9.9 12.1 8.6 13.5C65 77 59 73.1 52.9 67.1c-6.2-6.1-10-12.2-8.6-13.5zm-27.9 50.9h-2.9v-8.9l-5.3 8.9-5.4-8.9v8.9H0v-15h2.6L8.2 99l5.5-9.5h2.7v15zm18.8 0H23v-15h12.2v2.8h-9.3V95h5.3v3h-5.3v3.7h9.3v2.8zM55.3 97c0 2.1-.8 3.9-2.2 5.3-1.5 1.5-3.3 2.2-5.4 2.2H41v-15h6.7c2.1 0 3.9.7 5.4 2.2 1.5 1.5 2.2 3.3 2.2 5.3zm-2.9 0c0-1.3-.5-2.4-1.4-3.3-.9-.9-2-1.4-3.3-1.4h-3.8v9.3h3.8c1.3 0 2.4-.5 3.3-1.4.9-.8 1.4-1.9 1.4-3.2zm8.6 7.5v-15h2.9v15H61zm24.5 0h-3.2l-1.5-3.3h-7.7l-1.6 3.3h-3.2l7.2-15h2.9l7.1 15zm-6.1-6.1l-2.5-5.2-2.5 5.2h5zm44.6 6.1h-12.2v-15H124v2.8h-9.3V95h5.3v3h-5.3v3.7h9.3v2.8zm-17 0h-3.2L99.5 97l-5.9 7.4h-3.2V89.5h2.8v10.7l9-10.7h3.4l-4.3 5.1 5.7 9.9zm37.4-14.9l-6.9 9v6.1h-2.7v-6.1l-6.9-9h3.5l4.8 6.2 4.7-6.2h3.5zm9.7 6c-2.2-.6-3.5-1-3.5-2 0-1.1 1.2-1.9 2.8-1.9 1.7 0 3.3.6 4.3 1.6l.3.3 1.8-2-.3-.3c-1.5-1.4-3.5-2.1-6-2.1-3.4 0-5.9 1.9-5.9 4.5 0 3.2 3.1 3.9 5.7 4.5h.1c2.3.6 3.7 1 3.7 2.3 0 1-.9 2.1-3.3 2.1s-4-1.2-4.7-1.9l-.3-.4-1.7 2 .3.3c1.1 1.1 3.1 2.4 6.4 2.4 4.7 0 6.3-2.4 6.3-4.7-.1-3.3-3.3-4.1-6-4.7zM10.3 124.8v-9.9h1.9v9.9h-1.9zm14.5 0h-1.9l-5.6-6.8v6.8h-1.9v-9.9h1.8l5.6 6.9v-6.9h1.9v9.9zm11.4-8h-3.3v8H31v-8h-3.3v-1.9h8.5v1.9zm10.8 8h-8v-9.9h7.9v1.9h-6v1.8h3.5v1.9h-3.5v2.4H47v1.9zm12.3 0h-2.2l-2.2-3.7h-3.1v3.7H50v-9.9h6c.9 0 1.6.3 2.2.9.6.6.9 1.3.9 2.2 0 .7-.2 1.3-.6 1.8-.4.5-.9.9-1.5 1.1l2.3 3.9zm-2-6.8c0-.3-.1-.6-.4-.9-.2-.2-.5-.4-.9-.4h-4.2v2.4H56c.3 0 .6-.1.9-.4.2-.1.4-.4.4-.7zm14.4 6.8h-1.9l-5.6-6.8v6.8h-1.9v-9.9h1.8l5.6 6.9v-6.9h1.9l.1 9.9zm13.6 0h-2.1l-1-2.2h-5l-1 2.2H74l4.7-9.9h1.9l4.7 9.9zm-4-4l-1.6-3.4-1.6 3.4h3.2zm14.5-4h-3.3v8h-1.9v-8h-3.3v-1.9h8.5v1.9zm2.9 8v-9.9h1.9v9.9h-1.9zm15.1-5c0 1.4-.5 2.6-1.5 3.7s-2.2 1.5-3.6 1.5-2.6-.5-3.6-1.5-1.5-2.2-1.5-3.6.5-2.6 1.5-3.6 2.2-1.5 3.7-1.5c1.4 0 2.6.5 3.6 1.5.8 1 1.4 2.2 1.4 3.5zm-1.9 0c0-.9-.3-1.6-1-2.2-.6-.6-1.4-.9-2.3-.9s-1.7.3-2.3.9c-.6.6-1 1.4-1 2.2 0 .9.3 1.7 1 2.3.6.6 1.4 1 2.3 1s1.7-.3 2.3-1c.7-.6 1-1.4 1-2.3zm14 5H124l-5.6-6.8v6.8h-1.9v-9.9h1.8l5.6 6.9v-6.9h1.9v9.9zm13.6 0h-2.1l-1-2.2h-5l-1 2.2h-2.1l4.7-9.9h1.9l4.6 9.9zm-4-4l-1.6-3.4-1.6 3.4h3.2zm14.2 4h-8v-9.9h1.9v8h6.2v1.9z"/></symbol>
<symbol id="i-logo-mediakeys-planet" xmlns="http://www.w3.org/2000/svg" viewBox="0 0 78.8 78.5"><path d="M12.1 10.5c.3-.3 13.1 12 28.5 27.4C56.1 53.3 68.4 66 68.1 66.3c-.3.3-13.1-12-28.5-27.4S11.8 10.7 12.1 10.5zm-5.2 5.9c.7-.7 13.6 11.2 28.8 26.4C51 58 62.8 70.8 62.1 71.5c-.7.7-13.6-11.2-28.8-26.4S6.2 17 6.9 16.4zM19.6 4.9c.1-.1 12.3 11.8 27.2 26.7 14.9 14.9 26.9 27 26.8 27.1-.2.1-12.3-11.9-27.2-26.7S19.5 5 19.6 4.9zm9.2-3.6c.3-.3 11.5 10.3 24.9 23.6 13.4 13.4 24 24.5 23.7 24.8-.3.3-11.5-10.3-24.9-23.6C39.1 12.7 28.4 1.6 28.8 1.3zm11-1.3c.7-.7 10 7.4 20.8 18.2s18.9 20 18.2 20.7c-.7.7-10-7.4-20.8-18.1C47.2 10 39 .8 39.8 0zm17 4.7c.8-.7 5.3 2.6 10.2 7.4 4.8 4.8 8.2 9.4 7.4 10.1s-5.3-2.5-10.2-7.4C59.3 10 56 5.5 56.8 4.7zM2.6 24.2c1-1 13.5 9.7 27.8 23.9 14.3 14.3 25 26.7 24 27.7s-13.5-9.7-27.8-23.9c-14.3-14.3-25-26.7-24-27.7zM.2 35.4c1.4-1.4 12.2 7 24.1 18.9 11.9 11.8 20.3 22.6 18.9 24-1.4 1.4-12.2-7-24.1-18.9C7.2 47.6-1.3 36.9.2 35.4zm2.7 18.2c1.4-1.4 7.4 2.5 13.5 8.5s9.9 12.1 8.6 13.5c-1.4 1.4-7.4-2.5-13.5-8.5C5.4 61 1.6 54.9 2.9 53.6zM-41.3 0"/></symbol>
<symbol id="i-mail" xmlns="http://www.w3.org/2000/svg" viewBox="0 0 16 13"><path d="M14.286 0H1.714C1.26 0 .824.179.502.497A1.688 1.688 0 000 1.696v9.608c0 .45.18.881.502 1.2A1.73 1.73 0 001.714 13h12.572c.454 0 .89-.179 1.212-.497.321-.318.502-.749.502-1.199V1.696c0-.45-.18-.881-.502-1.2A1.724 1.724 0 0014.286 0zm-.13 4.683L9.6 7.391a3.124 3.124 0 01-3.19 0L1.85 4.678a.854.854 0 01-.398-.522.839.839 0 01.323-.892.861.861 0 01.956-.04l4.556 2.71a1.39 1.39 0 001.426 0l4.56-2.705a.864.864 0 011.183.286.842.842 0 01-.3 1.167v.001z"/></symbol>
<symbol id="i-pause" xmlns="http://www.w3.org/2000/svg" viewBox="0 0 12 18"><rect width="4" height="18" rx="2"/><rect width="4" height="18" x="8" rx="2"/></symbol>
<symbol id="i-pen" xmlns="http://www.w3.org/2000/svg" viewBox="0 0 10 10"><path d="M9.673 2.433A1.499 1.499 0 007.567.327l-4.041 2.85a1.13 1.13 0 00-.42.566L2.692 4.98a2.432 2.432 0 00-1.856.714C.06 6.47 0 8.776 0 9.465A.535.535 0 00.535 10c.689 0 2.999-.06 3.77-.835a2.458 2.458 0 00.753-1.735c0-.044-.012-.087-.014-.131l1.214-.404a1.13 1.13 0 00.565-.42l2.85-4.042zM3.548 8.408c-.705.34-1.48.512-2.263.5a.178.178 0 01-.19-.19 5.024 5.024 0 01.5-2.262 1.38 1.38 0 01.975-.442 1.38 1.38 0 01.978.438 1.309 1.309 0 010 1.956z"/></symbol>
<symbol id="i-phone" xmlns="http://www.w3.org/2000/svg" viewBox="0 0 13 18"><path d="M10.725 0h-8.45A2.29 2.29 0 00.667.66 2.24 2.24 0 000 2.25v13.5c0 .596.24 1.168.667 1.59a2.29 2.29 0 001.608.66h8.45a2.29 2.29 0 001.608-.66A2.24 2.24 0 0013 15.75V2.25a2.24 2.24 0 00-.667-1.59A2.29 2.29 0 0010.725 0zM7.15 16.071h-1.3a.654.654 0 01-.46-.188.639.639 0 010-.909.654.654 0 01.46-.188h1.3c.172 0 .338.067.46.188a.64.64 0 010 .91.654.654 0 01-.46.187zm3.9-3.535a.32.32 0 01-.095.227.327.327 0 01-.23.094h-8.45a.327.327 0 01-.23-.094.32.32 0 01-.095-.227V2.25a.32.32 0 01.095-.227.327.327 0 01.23-.094h8.45c.086 0 .169.033.23.094a.32.32 0 01.095.227v10.286z"/></symbol>
<symbol id="i-play" xmlns="http://www.w3.org/2000/svg" viewBox="0 0 67 71"><path d="M2 6.905v57.19a4.916 4.916 0 002.38 4.209 4.88 4.88 0 004.822.114L62.42 39.823a4.915 4.915 0 000-8.645L9.202 2.581a4.879 4.879 0 00-6.566 1.904A4.916 4.916 0 002 6.906z"/></symbol>
<symbol id="i-pointer" xmlns="http://www.w3.org/2000/svg" viewBox="0 0 7 10"><path d="M3.5 0A3.5 3.5 0 000 3.5c0 2.655 2.993 6.178 3.121 6.326a.5.5 0 00.758 0c.128-.148 3.122-3.671 3.122-6.326A3.5 3.5 0 003.5 0zm0 4.75a1.25 1.25 0 110-2.5 1.25 1.25 0 010 2.5z"/></symbol>
<symbol id="i-send" xmlns="http://www.w3.org/2000/svg" viewBox="0 0 24 25"><path d="M17.297 24.002a2.411 2.411 0 01-1.932-.965l-1.501-2.004-2.587 1.763a2.416 2.416 0 01-3.772-1.994v-4.42H2.414A2.417 2.417 0 010 13.968c0-.838.424-1.603 1.135-2.047L19.618.367c.383-.24.825-.367 1.276-.367.839 0 1.605.423 2.049 1.132.323.517.439 1.131.325 1.73l-3.6 19.171a2.414 2.414 0 01-2.371 1.969zm-.732-1.865a.909.909 0 00.73.364c.44 0 .818-.313.899-.745l3.6-19.172a.908.908 0 00.012-.265L11.694 15.634l4.871 6.503zm-7.56-1.334a.915.915 0 001.428.754l2.53-1.725-2.583-3.451H9.005v4.422zM20.413 1.639L1.93 13.193a.915.915 0 00.485 1.689h7.968L20.46 1.611l-.047.028z"/></symbol>
<symbol id="i-shadow-ellipse" xmlns="http://www.w3.org/2000/svg" viewBox="0 0 331 324"><path fill-opacity=".1" d="M331 165c0 89.046-76.313 158.216-165.359 158.216S0 251.546 0 162.5 76.594.752 165.641.752C254.687.752 331 75.954 331 165z"/></symbol>
<symbol id="i-twitter" xmlns="http://www.w3.org/2000/svg" viewBox="0 0 12 9"><path d="M10.767 2.243c.008.099.008.197.008.295C10.775 5.54 8.3 9 3.777 9A7.375 7.375 0 010 7.98c.198.02.388.028.594.028 1.15 0 2.208-.358 3.054-.97-1.082-.021-1.988-.675-2.3-1.575a2.822 2.822 0 001.113-.042C1.331 5.21.487 4.296.487 3.19v-.027a2.64 2.64 0 001.111.288C.937 3.045.503 2.348.503 1.56c0-.422.121-.809.334-1.146C2.048 1.792 3.868 2.693 5.91 2.792a2.391 2.391 0 01-.061-.52C5.848 1.018 6.945 0 8.308 0c.708 0 1.347.274 1.797.717a5.11 5.11 0 001.56-.548 2.31 2.31 0 01-1.081 1.251A5.27 5.27 0 0012 1.068c-.335.45-.753.851-1.233 1.175z"/></symbol>
<symbol id="i-upload" xmlns="http://www.w3.org/2000/svg" viewBox="0 0 20 20"><path d="M10 7.083h5.833a.833.833 0 000-1.666H10a.833.833 0 100 1.666z"/><path d="M20 3.68a1.666 1.666 0 00-.488-1.18L17.5.487A1.667 1.667 0 0016.322 0H6.667A1.667 1.667 0 005 1.667v6.062a.207.207 0 00.202.208c.305.005.865.029 1.237.07a.205.205 0 00.228-.207V2.083a.417.417 0 01.416-.416h9.066c.11 0 .216.043.294.121l1.769 1.769a.416.416 0 01.121.294V15a.417.417 0 01-.416.417h-5.715a.204.204 0 00-.201.175 6.63 6.63 0 01-.303 1.215.203.203 0 00.19.276h6.445A1.666 1.666 0 0020 15.415V3.679z"/><path d="M14.583 10a.834.834 0 00-.833-.833h-3.333a.796.796 0 00-.566.24.143.143 0 00.006.213c.377.337.715.715 1.008 1.128a.2.2 0 00.167.083h2.718a.833.833 0 00.833-.831zm-9.166-.833a5.417 5.417 0 105.416 5.416 5.423 5.423 0 00-5.416-5.416zm1.992 4.74a.416.416 0 01-.326.676h-.625a.208.208 0 00-.208.209v2.291a.833.833 0 01-1.667 0v-2.291a.208.208 0 00-.208-.209H3.75a.416.416 0 01-.326-.676l1.667-2.084a.431.431 0 01.651 0l1.667 2.084z"/></symbol>
<symbol id="i-validate" xmlns="http://www.w3.org/2000/svg" viewBox="0 0 20 20"><path d="M10 0a10 10 0 1010 10A10.011 10.011 0 0010 0zm5.143 8.429l-5.68 5.677a1.43 1.43 0 01-2.022 0l-2.584-2.58a1.43 1.43 0 112.026-2.02l1.571 1.571 4.663-4.667a1.43 1.43 0 012.026 2.019z"/></symbol>
<symbol id="i-volume" xmlns="http://www.w3.org/2000/svg" viewBox="0 0 15 14"><path d="M7.333 13.734L2.468 9.71a.58.58 0 00-.37-.132H.577a.58.58 0 01-.534-.354.567.567 0 01-.043-.22v-3.43a.57.57 0 01.169-.404.58.58 0 01.408-.167h1.521a.58.58 0 00.37-.133L7.333.845a1.158 1.158 0 011.714.265c.118.183.18.397.18.614v11.13a1.136 1.136 0 01-.665 1.038 1.163 1.163 0 01-1.229-.158zm.739-12.008L3.207 5.748a1.746 1.746 0 01-1.109.398h-.945v2.287h.945c.405 0 .798.141 1.109.398l4.87 4.024-.005-11.129zm4.62 10.139h-1.154v-9.15h1.154v9.15zM15 10.72h-1.153V3.858H15v6.863z"/></symbol>
</svg>