<svg width="24" height="24" viewBox="0 0 24 24" fill="none" xmlns="http://www.w3.org/2000/svg">
<g clip-path="url(#clip0_3_9)">
<path d="M12 24C18.6274 24 24 18.6274 24 12C24 5.37258 18.6274 0 12 0C5.37258 0 0 5.37258 0 12C0 18.6274 5.37258 24 12 24Z" fill="white"/>
<path d="M17.14 6.10001C17.4676 6.05838 17.8003 6.08937 18.1146 6.19077C18.4288 6.29218 18.7169 6.46151 18.9584 6.68676C19.1999 6.912 19.3888 7.18763 19.5118 7.49409C19.6348 7.80056 19.6888 8.13033 19.67 8.46001C19.7488 9.47362 19.5408 10.4889 19.07 11.39C17.7164 14.2156 15.7525 16.7054 13.32 18.68C12.8316 19.0665 12.2598 19.3336 11.65 19.46C11.3684 19.5377 11.071 19.5379 10.7894 19.4604C10.5077 19.383 10.2522 19.2308 10.05 19.02C9.46635 18.4343 9.05175 17.7019 8.85 16.9C8.4 15.32 8 13.73 7.53 12.15C7.38173 11.5298 7.13168 10.9384 6.79 10.4C6.45 9.89001 6.23 9.84001 5.71 10.14C5.56595 10.209 5.43149 10.2964 5.31 10.4C5.03 10.65 4.85 10.61 4.63 10.3C4.2 9.69001 4.18 9.71001 4.75 9.21001C5.54 8.52001 6.29 7.77001 7.13 7.13001L7.7 6.73001C7.94135 6.52165 8.2327 6.37958 8.54549 6.31773C8.85829 6.25588 9.18178 6.27638 9.48427 6.37721C9.78676 6.47803 10.0578 6.65574 10.271 6.89289C10.4841 7.13005 10.6319 7.41851 10.7 7.73001C10.9476 8.64851 11.1248 9.58456 11.23 10.53C11.3809 11.4847 11.5879 12.4297 11.85 13.36C11.9473 13.7164 12.1027 14.0542 12.31 14.36C12.53 14.64 12.79 14.71 13.05 14.46C14.0567 13.5215 14.7865 12.3247 15.16 11C15.45 9.84001 14.84 9.31001 13.64 9.55001C13.47 9.55001 13.26 9.77001 13.13 9.61001C13 9.45001 13.19 9.26001 13.25 9.09001C13.467 8.38333 13.8641 7.74528 14.4024 7.23857C14.9407 6.73187 15.6015 6.37395 16.32 6.20001C16.5912 6.15133 16.865 6.11795 17.14 6.10001V6.10001Z" fill="#5542F7"/>
</g>
<defs>
<clipPath id="clip0_3_9">
<rect width="24" height="24" fill="white"/>
</clipPath>
</defs>
</svg>
