<svg xmlns="http://www.w3.org/2000/svg" viewBox="0 0 364.1 38"><defs><style>.cls-1{fill:#fff;}.cls-2{fill:#babcbe;opacity:0.6;}</style></defs><g id="Layer_2" data-name="Layer 2"><g id="Layer_1-2" data-name="Layer 1"><path class="cls-1" d="M26.05,31.8H8.72l-2.5,5.56H0L17.22,0h.34L34.78,37.36H28.55Zm-2.22-4.93L17.4,12.56,11,26.87Z"/><path class="cls-1" d="M69.2.66V38h-.27L45.51,13.54V37.41H39.76V.11h.3L63.43,24.53V.66Z"/><path class="cls-1" d="M75.41,19.1A18.94,18.94,0,1,1,94.31,38,19,19,0,0,1,75.41,19.1Zm32.05,0A13.13,13.13,0,1,0,94.31,32.14,13.19,13.19,0,0,0,107.46,19.06Z"/><path class="cls-1" d="M140.59,6.45h-9.81V37.36H125V6.45H115.2V.75h25.39Z"/><path class="cls-1" d="M173.4.75V37.36h-5.74V21.9H151.8V37.36h-5.72V.75h5.72V16.19h15.86V.75Z"/><path class="cls-1" d="M187.11,6.41v9.38H201v5.72H187.11V31.64h16.06v5.72h-21.8V.75h21.8V6.41Z"/><path class="cls-1" d="M230.19,37.36l-9.85-14.17h-4.5V37.36h-5.75l0-36.61h11.38c6.81,0,12.4,5.25,12.4,11.77a10.7,10.7,0,0,1-7.25,10.19l10.66,14.65Zm-8.61-18.94a6.25,6.25,0,0,0,6.34-6,6.11,6.11,0,0,0-6.34-5.93h-5.77v12Z"/><path class="cls-1" d="M256.59.75h5.75V37.36h-5.75Z"/><path class="cls-1" d="M299.61,19.1c0,11.25-7.25,18.26-18.87,18.26H270.31V.75h10.43C292.36.73,299.61,7.77,299.61,19.1Zm-5.81,0c0-7.77-5.05-12.63-13.09-12.63H276V31.64h4.75C288.78,31.64,293.8,26.8,293.8,19.08Z"/><polygon class="cls-2" points="336.72 34.75 338.05 31.8 338.05 31.8 346.72 12.56 355.36 31.8 355.38 31.8 357.88 37.36 364.1 37.36 346.88 0 346.54 0 329.32 37.36 335.54 37.36 336.72 34.75"/><polygon class="cls-1" points="311.55 31.64 311.55 21.51 328.66 21.51 331.3 15.79 311.55 15.79 311.55 6.41 335.62 6.41 338.23 0.75 305.8 0.75 305.8 37.36 321.35 37.36 323.99 31.64 311.55 31.64"/><polygon class="cls-1" points="327.57 37.36 327.61 37.36 327.61 37.29 327.57 37.36"/></g></g></svg>